<mxfile host="app.diagrams.net" agent="Mozilla/5.0 (Windows NT 10.0; Win64; x64) AppleWebKit/537.36 (KHTML, like Gecko) Chrome/129.0.0.0 Safari/537.36" version="24.8.1">
  <diagram name="Airline Use Case Diagram" id="ar5NScWRSAKjXjXUSOuu">
    <mxGraphModel dx="1290" dy="470" grid="1" gridSize="10" guides="1" tooltips="1" connect="1" arrows="1" fold="1" page="1" pageScale="1" pageWidth="827" pageHeight="1169" math="0" shadow="0">
      <root>
        <mxCell id="0" />
        <mxCell id="1" parent="0" />
        <mxCell id="customer" value="Customer" style="shape=actor;whiteSpace=wrap;html=1;" vertex="1" parent="1">
          <mxGeometry x="60" y="60" width="40" height="60" as="geometry" />
        </mxCell>
        <mxCell id="admin" value="Admin" style="shape=actor;whiteSpace=wrap;html=1;" vertex="1" parent="1">
          <mxGeometry x="500" y="60" width="40" height="60" as="geometry" />
        </mxCell>
        <mxCell id="operator" value="Airline Operator" style="shape=actor;whiteSpace=wrap;html=1;" vertex="1" parent="1">
          <mxGeometry x="500" y="240" width="40" height="60" as="geometry" />
        </mxCell>
        <mxCell id="manager" value="Airline Manager" style="shape=actor;whiteSpace=wrap;html=1;" vertex="1" parent="1">
          <mxGeometry x="500" y="420" width="40" height="60" as="geometry" />
        </mxCell>
        <mxCell id="createAccount" value="Create Account" style="ellipse;whiteSpace=wrap;html=1;" vertex="1" parent="1">
          <mxGeometry x="200" y="60" width="100" height="50" as="geometry" />
        </mxCell>
        <mxCell id="manageSystem" value="Manage System" style="ellipse;whiteSpace=wrap;html=1;" vertex="1" parent="1">
          <mxGeometry x="200" y="160" width="100" height="50" as="geometry" />
        </mxCell>
        <mxCell id="searchFlight" value="Search Flight" style="ellipse;whiteSpace=wrap;html=1;" vertex="1" parent="1">
          <mxGeometry x="200" y="260" width="100" height="50" as="geometry" />
        </mxCell>
        <mxCell id="bookFlight" value="Book Flight" style="ellipse;whiteSpace=wrap;html=1;" vertex="1" parent="1">
          <mxGeometry x="200" y="360" width="100" height="50" as="geometry" />
        </mxCell>
        <mxCell id="cancelFlight" value="Cancel Flight" style="ellipse;whiteSpace=wrap;html=1;" vertex="1" parent="1">
          <mxGeometry x="200" y="460" width="100" height="50" as="geometry" />
        </mxCell>
        <mxCell id="requestFeedback" value="Request Feedback" style="ellipse;whiteSpace=wrap;html=1;" vertex="1" parent="1">
          <mxGeometry x="200" y="560" width="100" height="50" as="geometry" />
        </mxCell>
        <mxCell id="respondFeedback" value="Respond Feedback" style="ellipse;whiteSpace=wrap;html=1;" vertex="1" parent="1">
          <mxGeometry x="200" y="660" width="100" height="50" as="geometry" />
        </mxCell>
        <mxCell id="viewFlightStatus" value="View Flight Status" style="ellipse;whiteSpace=wrap;html=1;" vertex="1" parent="1">
          <mxGeometry x="400" y="160" width="100" height="50" as="geometry" />
        </mxCell>
        <mxCell id="makePayment" value="Make Payment" style="ellipse;whiteSpace=wrap;html=1;" vertex="1" parent="1">
          <mxGeometry x="400" y="360" width="100" height="50" as="geometry" />
        </mxCell>
        <mxCell id="customerToCreateAccount" edge="1" parent="1" source="customer" target="createAccount">
          <mxGeometry relative="1" as="geometry" />
        </mxCell>
        <mxCell id="customerToSearchFlight" edge="1" parent="1" source="customer" target="searchFlight">
          <mxGeometry relative="1" as="geometry" />
        </mxCell>
        <mxCell id="customerToBookFlight" edge="1" parent="1" source="customer" target="bookFlight">
          <mxGeometry relative="1" as="geometry" />
        </mxCell>
        <mxCell id="customerToMakePayment" edge="1" parent="1" source="customer" target="makePayment">
          <mxGeometry relative="1" as="geometry" />
        </mxCell>
        <mxCell id="customerToCancelFlight" edge="1" parent="1" source="customer" target="cancelFlight">
          <mxGeometry relative="1" as="geometry" />
        </mxCell>
        <mxCell id="customerToRequestFeedback" edge="1" parent="1" source="customer" target="requestFeedback">
          <mxGeometry relative="1" as="geometry" />
        </mxCell>
        <mxCell id="adminToCreateAccount" edge="1" parent="1" source="admin" target="createAccount">
          <mxGeometry relative="1" as="geometry" />
        </mxCell>
        <mxCell id="adminToManageSystem" edge="1" parent="1" source="admin" target="manageSystem">
          <mxGeometry relative="1" as="geometry" />
        </mxCell>
        <mxCell id="adminToCancelFlight" edge="1" parent="1" source="admin" target="cancelFlight">
          <mxGeometry relative="1" as="geometry" />
        </mxCell>
        <mxCell id="operatorToCreateAccount" edge="1" parent="1" source="operator" target="createAccount">
          <mxGeometry relative="1" as="geometry" />
        </mxCell>
        <mxCell id="operatorToInputAirplaneDetails" edge="1" parent="1" source="operator" target="manageSystem">
          <mxGeometry relative="1" as="geometry" />
        </mxCell>
        <mxCell id="operatorToCancelFlight" edge="1" parent="1" source="operator" target="cancelFlight">
          <mxGeometry relative="1" as="geometry" />
        </mxCell>
        <mxCell id="managerToCreateAccount" edge="1" parent="1" source="manager" target="createAccount">
          <mxGeometry relative="1" as="geometry" />
        </mxCell>
        <mxCell id="managerToRespondFeedback" edge="1" parent="1" source="manager" target="respondFeedback">
          <mxGeometry relative="1" as="geometry" />
        </mxCell>
        <mxCell id="managerToCancelFlight" edge="1" parent="1" source="manager" target="cancelFlight">
          <mxGeometry relative="1" as="geometry" />
        </mxCell>
      </root>
    </mxGraphModel>
  </diagram>
</mxfile>
